<mxfile host="Electron" modified="2024-08-13T09:09:36.111Z" agent="Mozilla/5.0 (Macintosh; Intel Mac OS X 10_15_7) AppleWebKit/537.36 (KHTML, like Gecko) draw.io/24.2.5 Chrome/120.0.6099.109 Electron/28.1.0 Safari/537.36" etag="8fU6OmWHPXPTdsJzp5LI" version="24.2.5" type="device" pages="2">
  <diagram name="Page-1" id="2vHV4gteYqO_gYE3zfdo">
    <mxGraphModel dx="1224" dy="868" grid="1" gridSize="10" guides="1" tooltips="1" connect="1" arrows="1" fold="1" page="1" pageScale="1" pageWidth="827" pageHeight="1169" math="0" shadow="0">
      <root>
        <mxCell id="0" />
        <mxCell id="1" parent="0" />
        <mxCell id="FC4i53UhssU2qa4jWRAD-31" value="" style="rounded=1;whiteSpace=wrap;html=1;sketch=1;jiggle=2;curveFitting=1;strokeColor=default;align=center;verticalAlign=middle;fontFamily=Gloria Hallelujah;fontSource=https%3A%2F%2Ffonts.googleapis.com%2Fcss%3Ffamily%3DGloria%2BHallelujah;fontSize=14;fontColor=default;labelBackgroundColor=default;fillColor=default;" parent="1" vertex="1">
          <mxGeometry x="30" y="500" width="230" height="220" as="geometry" />
        </mxCell>
        <mxCell id="FC4i53UhssU2qa4jWRAD-20" value="Malware download" style="edgeStyle=orthogonalEdgeStyle;curved=1;rounded=0;orthogonalLoop=1;jettySize=auto;html=1;entryX=0;entryY=0.75;entryDx=0;entryDy=0;strokeColor=#FF8000;strokeWidth=2;align=center;verticalAlign=middle;fontFamily=Gloria Hallelujah;fontSource=https%3A%2F%2Ffonts.googleapis.com%2Fcss%3Ffamily%3DGloria%2BHallelujah;fontSize=14;fontColor=default;labelBackgroundColor=default;endArrow=classic;flowAnimation=1;exitX=0.454;exitY=0.983;exitDx=0;exitDy=0;exitPerimeter=0;" parent="1" source="FC4i53UhssU2qa4jWRAD-1" target="FC4i53UhssU2qa4jWRAD-2" edge="1">
          <mxGeometry x="-0.6151" y="21" relative="1" as="geometry">
            <mxPoint as="offset" />
          </mxGeometry>
        </mxCell>
        <mxCell id="FC4i53UhssU2qa4jWRAD-1" value="Malware Download&lt;div&gt;Site&lt;/div&gt;" style="rounded=1;whiteSpace=wrap;html=1;sketch=1;curveFitting=1;jiggle=2;fontFamily=Gloria Hallelujah;fontSource=https%3A%2F%2Ffonts.googleapis.com%2Fcss%3Ffamily%3DGloria%2BHallelujah;fontSize=14;fillColor=#ffe6cc;strokeColor=#d79b00;" parent="1" vertex="1">
          <mxGeometry x="60" y="260" width="130" height="60" as="geometry" />
        </mxCell>
        <mxCell id="FC4i53UhssU2qa4jWRAD-7" value="LDAP query (tcp/1389)" style="edgeStyle=orthogonalEdgeStyle;curved=1;rounded=0;orthogonalLoop=1;jettySize=auto;html=1;entryX=0.75;entryY=0;entryDx=0;entryDy=0;strokeColor=#FF8000;strokeWidth=2;align=center;verticalAlign=middle;fontFamily=Gloria Hallelujah;fontSource=https%3A%2F%2Ffonts.googleapis.com%2Fcss%3Ffamily%3DGloria%2BHallelujah;fontSize=14;fontColor=default;labelBackgroundColor=default;endArrow=classic;flowAnimation=1;exitX=0.25;exitY=0;exitDx=0;exitDy=0;" parent="1" source="FC4i53UhssU2qa4jWRAD-2" target="FC4i53UhssU2qa4jWRAD-3" edge="1">
          <mxGeometry relative="1" as="geometry">
            <Array as="points">
              <mxPoint x="353" y="160" />
              <mxPoint x="725" y="160" />
            </Array>
          </mxGeometry>
        </mxCell>
        <mxCell id="FC4i53UhssU2qa4jWRAD-14" value="Web request to&amp;nbsp;&lt;div&gt;download payload (tcp/8888)&lt;/div&gt;" style="edgeStyle=orthogonalEdgeStyle;curved=1;rounded=0;orthogonalLoop=1;jettySize=auto;html=1;exitX=1;exitY=0.25;exitDx=0;exitDy=0;entryX=0;entryY=0.25;entryDx=0;entryDy=0;strokeColor=#FF8000;strokeWidth=2;align=center;verticalAlign=middle;fontFamily=Gloria Hallelujah;fontSource=https%3A%2F%2Ffonts.googleapis.com%2Fcss%3Ffamily%3DGloria%2BHallelujah;fontSize=14;fontColor=default;labelBackgroundColor=default;endArrow=classic;flowAnimation=1;" parent="1" source="FC4i53UhssU2qa4jWRAD-2" target="FC4i53UhssU2qa4jWRAD-3" edge="1">
          <mxGeometry relative="1" as="geometry" />
        </mxCell>
        <mxCell id="FC4i53UhssU2qa4jWRAD-18" value="Malware download&lt;div&gt;request&lt;/div&gt;" style="edgeStyle=orthogonalEdgeStyle;curved=1;rounded=0;orthogonalLoop=1;jettySize=auto;html=1;exitX=0;exitY=0.25;exitDx=0;exitDy=0;entryX=1;entryY=0.25;entryDx=0;entryDy=0;strokeColor=#FF8000;strokeWidth=2;align=center;verticalAlign=middle;fontFamily=Gloria Hallelujah;fontSource=https%3A%2F%2Ffonts.googleapis.com%2Fcss%3Ffamily%3DGloria%2BHallelujah;fontSize=14;fontColor=default;labelBackgroundColor=default;endArrow=classic;flowAnimation=1;" parent="1" source="FC4i53UhssU2qa4jWRAD-2" target="FC4i53UhssU2qa4jWRAD-1" edge="1">
          <mxGeometry relative="1" as="geometry" />
        </mxCell>
        <mxCell id="FC4i53UhssU2qa4jWRAD-2" value="Vulnerable App" style="rounded=1;whiteSpace=wrap;html=1;sketch=1;curveFitting=1;jiggle=2;fontFamily=Gloria Hallelujah;fontSource=https%3A%2F%2Ffonts.googleapis.com%2Fcss%3Ffamily%3DGloria%2BHallelujah;fontSize=14;fillColor=#f8cecc;strokeColor=#b85450;" parent="1" vertex="1">
          <mxGeometry x="320" y="390" width="130" height="60" as="geometry" />
        </mxCell>
        <mxCell id="FC4i53UhssU2qa4jWRAD-11" value="LDAP response with URL to&amp;nbsp;&lt;div&gt;payload (http://att-svr:8888/â€¦)&lt;/div&gt;" style="edgeStyle=orthogonalEdgeStyle;curved=1;rounded=0;orthogonalLoop=1;jettySize=auto;html=1;exitX=0.5;exitY=0;exitDx=0;exitDy=0;entryX=0.5;entryY=0;entryDx=0;entryDy=0;strokeColor=#FF00FF;strokeWidth=2;align=center;verticalAlign=middle;fontFamily=Gloria Hallelujah;fontSource=https%3A%2F%2Ffonts.googleapis.com%2Fcss%3Ffamily%3DGloria%2BHallelujah;fontSize=14;fontColor=default;labelBackgroundColor=default;endArrow=classic;flowAnimation=1;" parent="1" source="FC4i53UhssU2qa4jWRAD-3" target="FC4i53UhssU2qa4jWRAD-2" edge="1">
          <mxGeometry x="-0.4409" y="-20" relative="1" as="geometry">
            <mxPoint as="offset" />
          </mxGeometry>
        </mxCell>
        <mxCell id="FC4i53UhssU2qa4jWRAD-16" value="Web response with payload" style="edgeStyle=orthogonalEdgeStyle;curved=1;rounded=0;orthogonalLoop=1;jettySize=auto;html=1;entryX=1;entryY=0.75;entryDx=0;entryDy=0;strokeColor=#FF00FF;strokeWidth=2;align=center;verticalAlign=middle;fontFamily=Gloria Hallelujah;fontSource=https%3A%2F%2Ffonts.googleapis.com%2Fcss%3Ffamily%3DGloria%2BHallelujah;fontSize=14;fontColor=default;labelBackgroundColor=default;endArrow=classic;flowAnimation=1;exitX=0.75;exitY=1;exitDx=0;exitDy=0;" parent="1" source="FC4i53UhssU2qa4jWRAD-3" target="FC4i53UhssU2qa4jWRAD-2" edge="1">
          <mxGeometry x="0.0769" y="-5" relative="1" as="geometry">
            <mxPoint as="offset" />
          </mxGeometry>
        </mxCell>
        <mxCell id="FC4i53UhssU2qa4jWRAD-3" value="LDAP + WebServer" style="rounded=1;whiteSpace=wrap;html=1;sketch=1;curveFitting=1;jiggle=2;fontFamily=Gloria Hallelujah;fontSource=https%3A%2F%2Ffonts.googleapis.com%2Fcss%3Ffamily%3DGloria%2BHallelujah;fontSize=14;fillColor=#dae8fc;strokeColor=#6c8ebf;" parent="1" vertex="1">
          <mxGeometry x="590" y="260" width="180" height="60" as="geometry" />
        </mxCell>
        <mxCell id="FC4i53UhssU2qa4jWRAD-5" value="Crafted web request&lt;div&gt;with LDAP URI&lt;/div&gt;" style="edgeStyle=orthogonalEdgeStyle;rounded=0;orthogonalLoop=1;jettySize=auto;html=1;entryX=0.5;entryY=1;entryDx=0;entryDy=0;fontFamily=Gloria Hallelujah;fontSource=https%3A%2F%2Ffonts.googleapis.com%2Fcss%3Ffamily%3DGloria%2BHallelujah;fontSize=14;fontColor=default;flowAnimation=1;curved=1;strokeWidth=2;strokeColor=#FF8000;" parent="1" source="FC4i53UhssU2qa4jWRAD-4" target="FC4i53UhssU2qa4jWRAD-2" edge="1">
          <mxGeometry x="0.4194" y="-15" relative="1" as="geometry">
            <mxPoint as="offset" />
          </mxGeometry>
        </mxCell>
        <mxCell id="FC4i53UhssU2qa4jWRAD-4" value="Attacker Machine" style="rounded=1;whiteSpace=wrap;html=1;sketch=1;curveFitting=1;jiggle=2;fontFamily=Gloria Hallelujah;fontSource=https%3A%2F%2Ffonts.googleapis.com%2Fcss%3Ffamily%3DGloria%2BHallelujah;fontSize=14;fillColor=#e1d5e7;strokeColor=#9673a6;" parent="1" vertex="1">
          <mxGeometry x="590" y="525" width="180" height="60" as="geometry" />
        </mxCell>
        <mxCell id="FC4i53UhssU2qa4jWRAD-8" value="1" style="ellipse;whiteSpace=wrap;html=1;aspect=fixed;rounded=1;sketch=1;jiggle=2;curveFitting=1;strokeColor=#82b366;align=center;verticalAlign=middle;fontFamily=Gloria Hallelujah;fontSource=https%3A%2F%2Ffonts.googleapis.com%2Fcss%3Ffamily%3DGloria%2BHallelujah;fontSize=14;labelBackgroundColor=none;fillColor=#d5e8d4;gradientColor=#97d077;" parent="1" vertex="1">
          <mxGeometry x="454" y="470" width="40" height="40" as="geometry" />
        </mxCell>
        <mxCell id="FC4i53UhssU2qa4jWRAD-9" value="2" style="ellipse;whiteSpace=wrap;html=1;aspect=fixed;rounded=1;sketch=1;jiggle=2;curveFitting=1;strokeColor=#82b366;align=center;verticalAlign=middle;fontFamily=Gloria Hallelujah;fontSource=https%3A%2F%2Ffonts.googleapis.com%2Fcss%3Ffamily%3DGloria%2BHallelujah;fontSize=14;labelBackgroundColor=none;fillColor=#d5e8d4;gradientColor=#97d077;" parent="1" vertex="1">
          <mxGeometry x="360" y="130" width="40" height="40" as="geometry" />
        </mxCell>
        <mxCell id="FC4i53UhssU2qa4jWRAD-12" value="3" style="ellipse;whiteSpace=wrap;html=1;aspect=fixed;rounded=1;sketch=1;jiggle=2;curveFitting=1;strokeColor=#d6b656;align=center;verticalAlign=middle;fontFamily=Gloria Hallelujah;fontSource=https%3A%2F%2Ffonts.googleapis.com%2Fcss%3Ffamily%3DGloria%2BHallelujah;fontSize=14;labelBackgroundColor=none;fillColor=#fff2cc;gradientColor=#ffd966;" parent="1" vertex="1">
          <mxGeometry x="414" y="200" width="40" height="40" as="geometry" />
        </mxCell>
        <mxCell id="FC4i53UhssU2qa4jWRAD-15" value="4" style="ellipse;whiteSpace=wrap;html=1;aspect=fixed;rounded=1;sketch=1;jiggle=2;curveFitting=1;strokeColor=#82b366;align=center;verticalAlign=middle;fontFamily=Gloria Hallelujah;fontSource=https%3A%2F%2Ffonts.googleapis.com%2Fcss%3Ffamily%3DGloria%2BHallelujah;fontSize=14;labelBackgroundColor=none;fillColor=#d5e8d4;gradientColor=#97d077;" parent="1" vertex="1">
          <mxGeometry x="460" y="270" width="40" height="40" as="geometry" />
        </mxCell>
        <mxCell id="FC4i53UhssU2qa4jWRAD-17" value="5" style="ellipse;whiteSpace=wrap;html=1;aspect=fixed;rounded=1;sketch=1;jiggle=2;curveFitting=1;strokeColor=#d6b656;align=center;verticalAlign=middle;fontFamily=Gloria Hallelujah;fontSource=https%3A%2F%2Ffonts.googleapis.com%2Fcss%3Ffamily%3DGloria%2BHallelujah;fontSize=14;labelBackgroundColor=none;fillColor=#fff2cc;gradientColor=#ffd966;" parent="1" vertex="1">
          <mxGeometry x="720" y="370" width="40" height="40" as="geometry" />
        </mxCell>
        <mxCell id="FC4i53UhssU2qa4jWRAD-19" value="7" style="ellipse;whiteSpace=wrap;html=1;aspect=fixed;rounded=1;sketch=1;jiggle=2;curveFitting=1;strokeColor=#82b366;align=center;verticalAlign=middle;fontFamily=Gloria Hallelujah;fontSource=https%3A%2F%2Ffonts.googleapis.com%2Fcss%3Ffamily%3DGloria%2BHallelujah;fontSize=14;labelBackgroundColor=none;fillColor=#d5e8d4;gradientColor=#97d077;" parent="1" vertex="1">
          <mxGeometry x="230" y="230" width="40" height="40" as="geometry" />
        </mxCell>
        <mxCell id="FC4i53UhssU2qa4jWRAD-21" value="8" style="ellipse;whiteSpace=wrap;html=1;aspect=fixed;rounded=1;sketch=1;jiggle=2;curveFitting=1;strokeColor=#82b366;align=center;verticalAlign=middle;fontFamily=Gloria Hallelujah;fontSource=https%3A%2F%2Ffonts.googleapis.com%2Fcss%3Ffamily%3DGloria%2BHallelujah;fontSize=14;labelBackgroundColor=none;fillColor=#d5e8d4;gradientColor=#97d077;" parent="1" vertex="1">
          <mxGeometry x="70" y="400" width="40" height="40" as="geometry" />
        </mxCell>
        <mxCell id="FC4i53UhssU2qa4jWRAD-23" value="0" style="ellipse;whiteSpace=wrap;html=1;aspect=fixed;rounded=1;sketch=1;jiggle=2;curveFitting=1;strokeColor=#82b366;align=center;verticalAlign=middle;fontFamily=Gloria Hallelujah;fontSource=https%3A%2F%2Ffonts.googleapis.com%2Fcss%3Ffamily%3DGloria%2BHallelujah;fontSize=14;labelBackgroundColor=none;fillColor=#d5e8d4;gradientColor=#97d077;" parent="1" vertex="1">
          <mxGeometry x="60" y="520" width="40" height="40" as="geometry" />
        </mxCell>
        <mxCell id="FC4i53UhssU2qa4jWRAD-24" value="6" style="ellipse;whiteSpace=wrap;html=1;aspect=fixed;rounded=1;sketch=1;jiggle=2;curveFitting=1;strokeColor=#82b366;align=center;verticalAlign=middle;fontFamily=Gloria Hallelujah;fontSource=https%3A%2F%2Ffonts.googleapis.com%2Fcss%3Ffamily%3DGloria%2BHallelujah;fontSize=14;labelBackgroundColor=none;fillColor=#d5e8d4;gradientColor=#97d077;" parent="1" vertex="1">
          <mxGeometry x="60" y="570" width="40" height="40" as="geometry" />
        </mxCell>
        <mxCell id="FC4i53UhssU2qa4jWRAD-25" value="9" style="ellipse;whiteSpace=wrap;html=1;aspect=fixed;rounded=1;sketch=1;jiggle=2;curveFitting=1;strokeColor=#82b366;align=center;verticalAlign=middle;fontFamily=Gloria Hallelujah;fontSource=https%3A%2F%2Ffonts.googleapis.com%2Fcss%3Ffamily%3DGloria%2BHallelujah;fontSize=14;labelBackgroundColor=none;fillColor=#d5e8d4;gradientColor=#97d077;" parent="1" vertex="1">
          <mxGeometry x="60" y="620" width="40" height="40" as="geometry" />
        </mxCell>
        <mxCell id="FC4i53UhssU2qa4jWRAD-26" value="10" style="ellipse;whiteSpace=wrap;html=1;aspect=fixed;rounded=1;sketch=1;jiggle=2;curveFitting=1;strokeColor=#82b366;align=center;verticalAlign=middle;fontFamily=Gloria Hallelujah;fontSource=https%3A%2F%2Ffonts.googleapis.com%2Fcss%3Ffamily%3DGloria%2BHallelujah;fontSize=14;labelBackgroundColor=none;fillColor=#d5e8d4;gradientColor=#97d077;" parent="1" vertex="1">
          <mxGeometry x="60" y="670" width="40" height="40" as="geometry" />
        </mxCell>
        <mxCell id="FC4i53UhssU2qa4jWRAD-27" value="Unpatched CVE" style="text;whiteSpace=wrap;fontFamily=Gloria Hallelujah;fontSource=https%3A%2F%2Ffonts.googleapis.com%2Fcss%3Ffamily%3DGloria%2BHallelujah;fontSize=14;fontColor=default;labelBackgroundColor=default;" parent="1" vertex="1">
          <mxGeometry x="110" y="520" width="130" height="40" as="geometry" />
        </mxCell>
        <mxCell id="FC4i53UhssU2qa4jWRAD-28" value="Payload execution" style="text;whiteSpace=wrap;fontFamily=Gloria Hallelujah;fontSource=https%3A%2F%2Ffonts.googleapis.com%2Fcss%3Ffamily%3DGloria%2BHallelujah;fontSize=14;fontColor=default;labelBackgroundColor=default;" parent="1" vertex="1">
          <mxGeometry x="110" y="570" width="150" height="40" as="geometry" />
        </mxCell>
        <mxCell id="FC4i53UhssU2qa4jWRAD-29" value="Malware writtenÂ &#xa;to file system" style="text;whiteSpace=wrap;fontFamily=Gloria Hallelujah;fontSource=https%3A%2F%2Ffonts.googleapis.com%2Fcss%3Ffamily%3DGloria%2BHallelujah;fontSize=14;fontColor=default;labelBackgroundColor=default;" parent="1" vertex="1">
          <mxGeometry x="110" y="620" width="260" height="40" as="geometry" />
        </mxCell>
        <mxCell id="FC4i53UhssU2qa4jWRAD-30" value="Malware execution" style="text;whiteSpace=wrap;fontFamily=Gloria Hallelujah;fontSource=https%3A%2F%2Ffonts.googleapis.com%2Fcss%3Ffamily%3DGloria%2BHallelujah;fontSize=14;fontColor=default;labelBackgroundColor=default;" parent="1" vertex="1">
          <mxGeometry x="110" y="670" width="160" height="40" as="geometry" />
        </mxCell>
        <mxCell id="FC4i53UhssU2qa4jWRAD-33" style="edgeStyle=orthogonalEdgeStyle;curved=1;rounded=0;orthogonalLoop=1;jettySize=auto;html=1;exitX=1;exitY=0.15;exitDx=0;exitDy=0;entryX=0.208;entryY=1.017;entryDx=0;entryDy=0;entryPerimeter=0;strokeColor=#FF8000;strokeWidth=2;align=center;verticalAlign=middle;fontFamily=Gloria Hallelujah;fontSource=https%3A%2F%2Ffonts.googleapis.com%2Fcss%3Ffamily%3DGloria%2BHallelujah;fontSize=14;fontColor=default;labelBackgroundColor=default;endArrow=classic;flowAnimation=1;dashed=1;dashPattern=1 2;exitPerimeter=0;" parent="1" source="FC4i53UhssU2qa4jWRAD-31" target="FC4i53UhssU2qa4jWRAD-2" edge="1">
          <mxGeometry relative="1" as="geometry" />
        </mxCell>
        <mxCell id="FC4i53UhssU2qa4jWRAD-34" value="Log4j Attack Lab" style="text;html=1;align=center;verticalAlign=middle;whiteSpace=wrap;rounded=0;fontFamily=Gloria Hallelujah;fontSource=https%3A%2F%2Ffonts.googleapis.com%2Fcss%3Ffamily%3DGloria%2BHallelujah;fontSize=24;fontColor=default;labelBackgroundColor=default;fontStyle=4" parent="1" vertex="1">
          <mxGeometry x="30" y="110" width="253" height="30" as="geometry" />
        </mxCell>
        <mxCell id="FC4i53UhssU2qa4jWRAD-36" value="Reference" style="text;html=1;align=center;verticalAlign=middle;whiteSpace=wrap;rounded=0;fontFamily=Gloria Hallelujah;fontSource=https%3A%2F%2Ffonts.googleapis.com%2Fcss%3Ffamily%3DGloria%2BHallelujah;fontSize=20;fontColor=default;labelBackgroundColor=default;fontStyle=4" parent="1" vertex="1">
          <mxGeometry x="447.5" y="640" width="142.5" height="30" as="geometry" />
        </mxCell>
        <UserObject label="https://github.com/fefefe8888/l4s-demo" link="https://github.com/fefefe8888/l4s-demo" id="FC4i53UhssU2qa4jWRAD-37">
          <mxCell style="text;whiteSpace=wrap;fontFamily=Gloria Hallelujah;fontSource=https%3A%2F%2Ffonts.googleapis.com%2Fcss%3Ffamily%3DGloria%2BHallelujah;fontSize=14;fontColor=default;labelBackgroundColor=default;" parent="1" vertex="1">
            <mxGeometry x="460" y="670" width="310" height="40" as="geometry" />
          </mxCell>
        </UserObject>
        <mxCell id="FC4i53UhssU2qa4jWRAD-39" value="" style="shape=image;imageAspect=0;aspect=fixed;verticalLabelPosition=bottom;verticalAlign=top;rounded=1;sketch=1;jiggle=2;curveFitting=1;strokeColor=default;align=center;fontFamily=Gloria Hallelujah;fontSource=https%3A%2F%2Ffonts.googleapis.com%2Fcss%3Ffamily%3DGloria%2BHallelujah;fontSize=14;fontColor=default;labelBackgroundColor=default;fillColor=default;image=https://cdni.iconscout.com/illustration/premium/thumb/hacker-3354776-2810790.png?f=webp;" parent="1" vertex="1">
          <mxGeometry x="700" y="440" width="120" height="120" as="geometry" />
        </mxCell>
        <mxCell id="FC4i53UhssU2qa4jWRAD-41" value="" style="shape=image;imageAspect=0;aspect=fixed;verticalLabelPosition=bottom;verticalAlign=top;rounded=1;sketch=1;jiggle=2;curveFitting=1;strokeColor=default;align=center;fontFamily=Gloria Hallelujah;fontSource=https%3A%2F%2Ffonts.googleapis.com%2Fcss%3Ffamily%3DGloria%2BHallelujah;fontSize=14;fontColor=default;labelBackgroundColor=default;fillColor=default;image=https://images.crunchbase.com/image/upload/c_pad,f_auto,q_auto:eco,dpr_1/rfuwf3yqq2cermkmrej6;" parent="1" vertex="1">
          <mxGeometry x="31.629999999999995" y="460" width="38.37" height="50" as="geometry" />
        </mxCell>
        <mxCell id="FC4i53UhssU2qa4jWRAD-42" value="" style="shape=image;imageAspect=0;aspect=fixed;verticalLabelPosition=bottom;verticalAlign=top;rounded=1;sketch=1;jiggle=2;curveFitting=1;strokeColor=default;align=center;fontFamily=Gloria Hallelujah;fontSource=https%3A%2F%2Ffonts.googleapis.com%2Fcss%3Ffamily%3DGloria%2BHallelujah;fontSize=14;fontColor=default;labelBackgroundColor=default;fillColor=default;image=https://images.crunchbase.com/image/upload/c_pad,f_auto,q_auto:eco,dpr_1/rfuwf3yqq2cermkmrej6;" parent="1" vertex="1">
          <mxGeometry x="46.980000000000004" y="390" width="23.02" height="30" as="geometry" />
        </mxCell>
        <mxCell id="FC4i53UhssU2qa4jWRAD-43" value="" style="shape=image;imageAspect=0;aspect=fixed;verticalLabelPosition=bottom;verticalAlign=top;rounded=1;sketch=1;jiggle=2;curveFitting=1;strokeColor=default;align=center;fontFamily=Gloria Hallelujah;fontSource=https%3A%2F%2Ffonts.googleapis.com%2Fcss%3Ffamily%3DGloria%2BHallelujah;fontSize=14;fontColor=default;labelBackgroundColor=default;fillColor=default;image=https://images.crunchbase.com/image/upload/c_pad,f_auto,q_auto:eco,dpr_1/rfuwf3yqq2cermkmrej6;" parent="1" vertex="1">
          <mxGeometry x="206.98000000000002" y="220" width="23.02" height="30" as="geometry" />
        </mxCell>
        <mxCell id="FC4i53UhssU2qa4jWRAD-44" value="" style="shape=image;imageAspect=0;aspect=fixed;verticalLabelPosition=bottom;verticalAlign=top;rounded=1;sketch=1;jiggle=2;curveFitting=1;strokeColor=default;align=center;fontFamily=Gloria Hallelujah;fontSource=https%3A%2F%2Ffonts.googleapis.com%2Fcss%3Ffamily%3DGloria%2BHallelujah;fontSize=14;fontColor=default;labelBackgroundColor=default;fillColor=default;image=https://images.crunchbase.com/image/upload/c_pad,f_auto,q_auto:eco,dpr_1/rfuwf3yqq2cermkmrej6;" parent="1" vertex="1">
          <mxGeometry x="330" y="120" width="23.02" height="30" as="geometry" />
        </mxCell>
        <mxCell id="FC4i53UhssU2qa4jWRAD-45" value="" style="shape=image;imageAspect=0;aspect=fixed;verticalLabelPosition=bottom;verticalAlign=top;rounded=1;sketch=1;jiggle=2;curveFitting=1;strokeColor=default;align=center;fontFamily=Gloria Hallelujah;fontSource=https%3A%2F%2Ffonts.googleapis.com%2Fcss%3Ffamily%3DGloria%2BHallelujah;fontSize=14;fontColor=default;labelBackgroundColor=default;fillColor=default;image=https://images.crunchbase.com/image/upload/c_pad,f_auto,q_auto:eco,dpr_1/rfuwf3yqq2cermkmrej6;" parent="1" vertex="1">
          <mxGeometry x="500" y="260" width="23.02" height="30" as="geometry" />
        </mxCell>
        <mxCell id="FC4i53UhssU2qa4jWRAD-46" value="" style="shape=image;imageAspect=0;aspect=fixed;verticalLabelPosition=bottom;verticalAlign=top;rounded=1;sketch=1;jiggle=2;curveFitting=1;strokeColor=default;align=center;fontFamily=Gloria Hallelujah;fontSource=https%3A%2F%2Ffonts.googleapis.com%2Fcss%3Ffamily%3DGloria%2BHallelujah;fontSize=14;fontColor=default;labelBackgroundColor=default;fillColor=default;image=https://images.crunchbase.com/image/upload/c_pad,f_auto,q_auto:eco,dpr_1/rfuwf3yqq2cermkmrej6;" parent="1" vertex="1">
          <mxGeometry x="494" y="450" width="23.02" height="30" as="geometry" />
        </mxCell>
        <mxCell id="FC4i53UhssU2qa4jWRAD-47" value="X" style="text;html=1;align=center;verticalAlign=middle;whiteSpace=wrap;rounded=0;fontFamily=Gloria Hallelujah;fontSource=https%3A%2F%2Ffonts.googleapis.com%2Fcss%3Ffamily%3DGloria%2BHallelujah;fontSize=23;fontColor=#FF3333;labelBackgroundColor=default;fontStyle=1" parent="1" vertex="1">
          <mxGeometry x="170" y="400" width="60" height="30" as="geometry" />
        </mxCell>
        <mxCell id="FC4i53UhssU2qa4jWRAD-48" value="X" style="text;html=1;align=center;verticalAlign=middle;whiteSpace=wrap;rounded=0;fontFamily=Gloria Hallelujah;fontSource=https%3A%2F%2Ffonts.googleapis.com%2Fcss%3Ffamily%3DGloria%2BHallelujah;fontSize=23;fontColor=#FF3333;labelBackgroundColor=default;fontStyle=1" parent="1" vertex="1">
          <mxGeometry x="240" y="360" width="60" height="30" as="geometry" />
        </mxCell>
        <mxCell id="FC4i53UhssU2qa4jWRAD-49" value="X" style="text;html=1;align=center;verticalAlign=middle;whiteSpace=wrap;rounded=0;fontFamily=Gloria Hallelujah;fontSource=https%3A%2F%2Ffonts.googleapis.com%2Fcss%3Ffamily%3DGloria%2BHallelujah;fontSize=23;fontColor=#FF3333;labelBackgroundColor=default;fontStyle=1" parent="1" vertex="1">
          <mxGeometry x="350" y="235" width="60" height="30" as="geometry" />
        </mxCell>
        <mxCell id="FC4i53UhssU2qa4jWRAD-50" value="X" style="text;html=1;align=center;verticalAlign=middle;whiteSpace=wrap;rounded=0;fontFamily=Gloria Hallelujah;fontSource=https%3A%2F%2Ffonts.googleapis.com%2Fcss%3Ffamily%3DGloria%2BHallelujah;fontSize=23;fontColor=#FF3333;labelBackgroundColor=default;fontStyle=1" parent="1" vertex="1">
          <mxGeometry x="470" y="375" width="60" height="30" as="geometry" />
        </mxCell>
        <mxCell id="FC4i53UhssU2qa4jWRAD-51" value="X" style="text;html=1;align=center;verticalAlign=middle;whiteSpace=wrap;rounded=0;fontFamily=Gloria Hallelujah;fontSource=https%3A%2F%2Ffonts.googleapis.com%2Fcss%3Ffamily%3DGloria%2BHallelujah;fontSize=23;fontColor=#FF3333;labelBackgroundColor=default;fontStyle=1" parent="1" vertex="1">
          <mxGeometry x="360" y="480" width="60" height="30" as="geometry" />
        </mxCell>
        <mxCell id="FC4i53UhssU2qa4jWRAD-52" value="X" style="text;html=1;align=center;verticalAlign=middle;whiteSpace=wrap;rounded=0;fontFamily=Gloria Hallelujah;fontSource=https%3A%2F%2Ffonts.googleapis.com%2Fcss%3Ffamily%3DGloria%2BHallelujah;fontSize=23;fontColor=#FF3333;labelBackgroundColor=default;fontStyle=1" parent="1" vertex="1">
          <mxGeometry x="310" y="480" width="60" height="30" as="geometry" />
        </mxCell>
      </root>
    </mxGraphModel>
  </diagram>
  <diagram id="33PxgUaOUrras-6Qu4vc" name="Page-2">
    <mxGraphModel dx="644" dy="457" grid="1" gridSize="10" guides="1" tooltips="1" connect="1" arrows="1" fold="1" page="1" pageScale="1" pageWidth="850" pageHeight="1100" math="0" shadow="0">
      <root>
        <mxCell id="0" />
        <mxCell id="1" parent="0" />
        <mxCell id="wWrjS2-vFf6JOiWf1tD7-1" value="Legacy OS" style="rounded=1;whiteSpace=wrap;html=1;sketch=1;hachureGap=4;jiggle=2;curveFitting=1;fontFamily=Architects Daughter;fontSource=https%3A%2F%2Ffonts.googleapis.com%2Fcss%3Ffamily%3DArchitects%2BDaughter;fontSize=16;" vertex="1" parent="1">
          <mxGeometry x="260" y="440" width="120" height="60" as="geometry" />
        </mxCell>
        <mxCell id="NKV0bgsgyVKdSUT56K4s-7" style="edgeStyle=orthogonalEdgeStyle;rounded=0;hachureGap=4;orthogonalLoop=1;jettySize=auto;html=1;exitX=0.5;exitY=1;exitDx=0;exitDy=0;entryX=0.5;entryY=0;entryDx=0;entryDy=0;fontFamily=Architects Daughter;fontSource=https%3A%2F%2Ffonts.googleapis.com%2Fcss%3Ffamily%3DArchitects%2BDaughter;flowAnimation=1;strokeWidth=2;strokeColor=#FF00FF;" edge="1" parent="1" source="wWrjS2-vFf6JOiWf1tD7-2" target="wWrjS2-vFf6JOiWf1tD7-1">
          <mxGeometry relative="1" as="geometry" />
        </mxCell>
        <mxCell id="wWrjS2-vFf6JOiWf1tD7-2" value="Supported OS&lt;br&gt;(WAAS)" style="rounded=1;whiteSpace=wrap;html=1;sketch=1;hachureGap=4;jiggle=2;curveFitting=1;fontFamily=Architects Daughter;fontSource=https%3A%2F%2Ffonts.googleapis.com%2Fcss%3Ffamily%3DArchitects%2BDaughter;fontSize=16;" vertex="1" parent="1">
          <mxGeometry x="260" y="300" width="120" height="60" as="geometry" />
        </mxCell>
        <mxCell id="wWrjS2-vFf6JOiWf1tD7-3" value="" style="whiteSpace=wrap;html=1;aspect=fixed;sketch=1;hachureGap=4;jiggle=2;curveFitting=1;fontFamily=Architects Daughter;fontSource=https%3A%2F%2Ffonts.googleapis.com%2Fcss%3Ffamily%3DArchitects%2BDaughter;" vertex="1" parent="1">
          <mxGeometry x="360" y="350" width="50" height="50" as="geometry" />
        </mxCell>
        <mxCell id="NKV0bgsgyVKdSUT56K4s-1" value="" style="shape=image;imageAspect=0;aspect=fixed;verticalLabelPosition=bottom;verticalAlign=top;rounded=1;sketch=1;jiggle=2;curveFitting=1;strokeColor=default;align=center;fontFamily=Gloria Hallelujah;fontSource=https%3A%2F%2Ffonts.googleapis.com%2Fcss%3Ffamily%3DGloria%2BHallelujah;fontSize=14;fontColor=default;labelBackgroundColor=default;fillColor=default;image=https://images.crunchbase.com/image/upload/c_pad,f_auto,q_auto:eco,dpr_1/rfuwf3yqq2cermkmrej6;" vertex="1" parent="1">
          <mxGeometry x="373.49" y="360" width="23.02" height="30" as="geometry" />
        </mxCell>
        <mxCell id="NKV0bgsgyVKdSUT56K4s-3" style="edgeStyle=orthogonalEdgeStyle;rounded=0;sketch=1;hachureGap=4;jiggle=2;curveFitting=1;orthogonalLoop=1;jettySize=auto;html=1;entryX=1;entryY=0.5;entryDx=0;entryDy=0;fontFamily=Architects Daughter;fontSource=https%3A%2F%2Ffonts.googleapis.com%2Fcss%3Ffamily%3DArchitects%2BDaughter;exitX=0.5;exitY=1;exitDx=0;exitDy=0;" edge="1" parent="1" source="NKV0bgsgyVKdSUT56K4s-2" target="wWrjS2-vFf6JOiWf1tD7-3">
          <mxGeometry relative="1" as="geometry" />
        </mxCell>
        <mxCell id="NKV0bgsgyVKdSUT56K4s-2" value="Defender" style="text;html=1;align=center;verticalAlign=middle;whiteSpace=wrap;rounded=0;fontFamily=Architects Daughter;fontSource=https%3A%2F%2Ffonts.googleapis.com%2Fcss%3Ffamily%3DArchitects%2BDaughter;fontSize=20;" vertex="1" parent="1">
          <mxGeometry x="450" y="320" width="60" height="30" as="geometry" />
        </mxCell>
        <mxCell id="NKV0bgsgyVKdSUT56K4s-5" value="Before" style="edgeStyle=orthogonalEdgeStyle;rounded=0;hachureGap=4;orthogonalLoop=1;jettySize=auto;html=1;entryX=0;entryY=0.5;entryDx=0;entryDy=0;fontFamily=Architects Daughter;fontSource=https%3A%2F%2Ffonts.googleapis.com%2Fcss%3Ffamily%3DArchitects%2BDaughter;fontSize=16;flowAnimation=1;strokeWidth=2;" edge="1" parent="1" source="NKV0bgsgyVKdSUT56K4s-4" target="wWrjS2-vFf6JOiWf1tD7-1">
          <mxGeometry relative="1" as="geometry">
            <mxPoint as="offset" />
          </mxGeometry>
        </mxCell>
        <mxCell id="NKV0bgsgyVKdSUT56K4s-6" value="After" style="edgeStyle=orthogonalEdgeStyle;rounded=0;hachureGap=4;orthogonalLoop=1;jettySize=auto;html=1;entryX=0;entryY=0.5;entryDx=0;entryDy=0;fontFamily=Architects Daughter;fontSource=https%3A%2F%2Ffonts.googleapis.com%2Fcss%3Ffamily%3DArchitects%2BDaughter;exitX=0.75;exitY=0.1;exitDx=0;exitDy=0;exitPerimeter=0;fontSize=16;flowAnimation=1;strokeWidth=2;strokeColor=#FF00FF;" edge="1" parent="1" source="NKV0bgsgyVKdSUT56K4s-4" target="wWrjS2-vFf6JOiWf1tD7-2">
          <mxGeometry x="0.4425" y="20" relative="1" as="geometry">
            <Array as="points">
              <mxPoint x="170" y="346" />
              <mxPoint x="170" y="330" />
            </Array>
            <mxPoint as="offset" />
          </mxGeometry>
        </mxCell>
        <mxCell id="NKV0bgsgyVKdSUT56K4s-4" value="User" style="shape=umlActor;verticalLabelPosition=bottom;verticalAlign=top;html=1;outlineConnect=0;sketch=1;hachureGap=4;jiggle=2;curveFitting=1;fontFamily=Architects Daughter;fontSource=https%3A%2F%2Ffonts.googleapis.com%2Fcss%3Ffamily%3DArchitects%2BDaughter;fontSize=16;" vertex="1" parent="1">
          <mxGeometry x="110" y="340" width="30" height="60" as="geometry" />
        </mxCell>
      </root>
    </mxGraphModel>
  </diagram>
</mxfile>
